<!DOCTYPE svg PUBLIC "-//W3C//DTD SVG 1.1//EN" "http://www.w3.org/Graphics/SVG/1.1/DTD/svg11.dtd">

<!-- Uploaded to: SVG Repo, www.svgrepo.com, Transformed by: SVG Repo Mixer Tools -->
<svg width="40px" height="40px" viewBox="0 0 20.05 20.05" xmlns="http://www.w3.org/2000/svg" fill="#000000">

<g id="SVGRepo_bgCarrier" stroke-width="0"/>

<g id="SVGRepo_tracerCarrier" stroke-linecap="round" stroke-linejoin="round"/>

<g id="SVGRepo_iconCarrier"> <g id="nut" transform="translate(-1.974 -3)"> <path id="secondary" fill="#fbff05" d="M20.87,11.51l-3.94-7A1,1,0,0,0,16.06,4H7.94a1,1,0,0,0-.87.51l-3.94,7a1,1,0,0,0,0,1l3.94,7a1,1,0,0,0,.87.51h8.12a1,1,0,0,0,.87-.51l3.94-7A1,1,0,0,0,20.87,11.51ZM12,15a3,3,0,1,1,3-3A3,3,0,0,1,12,15Z"/> <path id="primary" d="M12,15a3,3,0,1,1,3-3A3,3,0,0,1,12,15Zm4.06,5a1,1,0,0,0,.87-.51l3.94-7a1,1,0,0,0,0-1l-3.94-7A1,1,0,0,0,16.06,4H7.94a1,1,0,0,0-.87.51l-3.94,7a1,1,0,0,0,0,1l3.94,7a1,1,0,0,0,.87.51Z" fill="none" stroke="#000000" stroke-linecap="round" stroke-linejoin="round" stroke-width="2"/> </g> </g>

</svg>